/* XPM */
static char *_3feeaca089343b5a3789f141d2d7e3fDC5H3SU9POQrEHcX[] = {
/* columns rows colors chars-per-pixel */
"50 50 9 1 ",
"  c None",
". c black",
"X c #482D1E",
"o c #5F3A27",
"O c #744730",
"+ c #5F5F5F",
"@ c #727272",
"# c gray50",
"$ c #865337",
/* pixels */
"                                                  ",
"                                                  ",
"                                                  ",
"                                                  ",
"                                                  ",
"                       +++++                      ",
"                   ++++#####+++                   ",
"                   ++++#####+++                   ",
"                +++############+++                ",
"               +@@################+               ",
"               +@@######....#######+              ",
"              +@#####....X....######++            ",
"              +@#####....X....######+             ",
"              +@####.XXXX$$$oO.#####+             ",
"           +++@####.XXXX$$$$oOO..####++           ",
"          +@@######.XOOX$$$$oOO..######+          ",
"          +@@#####.XXOOX$$$$oOOOO.#####+          ",
"          +@@#####.XXOOX$$$$oOOOOO.#####+         ",
"         +@@@###..XXOOOX$$$$oOOOOO.#####+         ",
"         +@#####..XOOOOX$$$$oOOOOO.#####+         ",
"         +@####.XXXOOOOX$$$$oOoOOOo.####+         ",
"         +@####.XXoOOOOX$$$$oOooOOo.####+         ",
"         +@####.XXoOOOOX$$$ooOOOOOo.####+         ",
"         +@####.XXoOOOOX$$$ooOOOOOo.####+         ",
"         +@####.XXoOOOOX$$$ooOOOOOo.####+         ",
"        +@@####.XXoOOOOX$o$ooOOOOOo.#####+        ",
"        +@@####.XXoOOOOX$o$ooOOOOOo.#####+        ",
"        +@@####.XXoOOOXX$$$ooOOOOOo$.####+        ",
"        +@@###.XXXoOOOXX$$$ooOOOOOo$.####+        ",
"        +@@###.XOOoOOOXX$$$ooOOOOOo$.####+        ",
"        +@@###.XOOoOOOXX$$$ooOOOOOo$.####+        ",
"        +@@###.XOOoOOOXX$$$ooOOOOOo$.####+        ",
"        +@@###.XOooOOOXX$$$ooOOO..o$.####+        ",
"        +@@###.XOooOOOXX$$$ooOOO..o$.####+        ",
"      +++@####.XOooOOOXX$$$ooOO....$.####+++      ",
"      ++@@####.XOooOOOXX$$$ooO....o$.#####++      ",
"      ++@@###..XOooOOOXX$$$ooOOOooo$...###++      ",
"      ++@@##..XXOooOOOXX$$$ooOOOooo$$..###++      ",
"      ++@@##..XXOooOOOXX$$$ooOOOooo$$..###++      ",
"      ++@@##..XOOooOOOXX$$$ooOOOOOo$$..###++      ",
"      ++@###..XOOooOOOXX$$$ooOOOOOo$$..###++      ",
"      ++@###..XOOooOOOXX$$$ooOOOOOo$$..###++      ",
"      +@@###..XOOoooOOXX$$$ooOOOOOo$$..###++      ",
"      +@@###..XOOoooOOXX$$$ooOOOOOo$$..###++      ",
"      +@@###..XOOoooOOXX$$oooOOOOOo$$..###++      ",
"                                                  ",
"                                                  ",
"                                                  ",
"                                                  ",
"                                                  "
};
