/* XPM */
static char *result[] = {
/* columns rows colors chars-per-pixel */
"28 40 4 1 ",
"  c gray9",
". c #BFA787",
"X c #E8D4B2",
"o c None",
/* pixels */
"oooooooo            oooooooo",
"oooooooo            oooooooo",
"oooo    XXXXXXXXXXXX    oooo",
"oooo    XXXXXXXXXXXX    oooo",
"oo  XXXXXXXXXXXXXXXXXXXX  oo",
"oo  XXXXXXXXXXXXXXXXXXXX  oo",
"oo  XXXXXXXXXXXXXXXXXXXX  oo",
"oo  XXXXXXXXXXXXXXXXXXXX  oo",
"  ..XXXXXXXXXXXXXXXXXXXX..  ",
"  ..XXXXXXXXXXXXXXXXXXXX..  ",
"  XXXXXXXXXXXXXXXXXXXXXXXX  ",
"  XXXXXXXXXXXXXXXXXXXXXXXX  ",
"  XXXXXXXXXXXXXXXXXXXXXXXX  ",
"  XXXXXXXXXXXXXXXXXXXXXXXX  ",
"  ..XXXX  XXXXXXXX  XXXX..  ",
"  ..XXXX  XXXXXXXX  XXXX..  ",
"oo  XXXX  XXXXXXXX  XXXX  oo",
"oo  XXXX  XXXXXXXX  XXXX  oo",
"oo  ..XXXXXXXXXXXXXXXX..  oo",
"oo  ..XXXXXXXXXXXXXXXX..  oo",
"oooo  ..XXXXXXXXXXXX..  oooo",
"oooo  ..XXXXXXXXXXXX..  oooo",
"oo  ..XXXXXXXXXXXXXXXXXX  oo",
"oo  ..XXXXXXXXXXXXXXXXXX  oo",
"oo  ..  XXXXXXXXXX  XXXX  oo",
"oo  ..  XXXXXXXXXX  XXXX  oo",
"oooo    XXXXXXXXXX  ..XX  oo",
"oooo    XXXXXXXXXX  ..XX  oo",
"oooooo  XXXXXXXXXX  ....  oo",
"oooooo  XXXXXXXXXX  ....  oo",
"oooooo  XXXX........    oooo",
"oooooo  XXXX........    oooo",
"oooooo  XX..    ....  oooooo",
"oooooo  XX..    ....  oooooo",
"oooooo  ....  oo    oooooooo",
"oooooo  ....  oo    oooooooo",
"oooooooo    oooooooooooooooo",
"oooooooo    oooooooooooooooo",
"oooooooooooooooooooooooooooo",
"oooooooooooooooooooooooooooo"
};
