/* XPM */
static char *_d93b1d1644945218863d3f72e85a7c2C1EyJhYb69es6axP[] = {
/* columns rows colors chars-per-pixel */
"50 50 7 1 ",
"  c #328E41",
". c #3ABE41",
"X c #6ADD4B",
"o c #165C88",
"O c #1E7CB8",
"+ c #5AAEE4",
"@ c white",
/* pixels */
"OOOOOOOOOOOOOOOOOOOOOOOOOOOOOOOOOOOOOOOOOOOOOOOOOO",
"OOOOOOOOOOOOOOOOOOOOOOOOOOOOOOOOOOOOOOOOOOOOOOOOOO",
"OOOOOOOOOOOOOOOOOOOOOOOOOOOOOOOOOOOOOOOOOOOOOOOOOO",
"OOOOOOOOO@@@@@@@+OOO++@@@++OOOOOOOOO++@@@+OOOOOOOO",
"OOOOOOOOO@@@@@@@+OOO++@@@++OOOOOOOOO++@@@+OOOOOOOO",
"OOOOOO@@@  ...  @@@@@@   @@@++O++@@@@@   @@@+OOOOO",
"OOOOO@  ................... @@@@@ ........  @++OOO",
"OOOOO@  ................... @@@@@ ........  @++OOO",
"OOO@@ ................................X..... @@OOO",
"OOO@@........................................@@OOO",
"OOO@@........................................@@OOO",
"OOO@@ ..............XX...................... @@OOO",
"OOO@@ .................................XX... @@OOO",
"OOO@@ .................................XX... @@OOO",
"OOO++@................................X  ...@++OOO",
"OOO++@................................X  ...@++OOO",
"OOOoo@  ..........................XX..X.....@++OOO",
"OOOoo@  .........XX...............  .. ..... @@OOO",
"OOOoo@  .........XX...............  .. ..... @@OOO",
"OOOOO+@@.........XX..........................@@OOO",
"OOOOO+@@.........  ......................... @@OOO",
"OOOOO+@@.........  ......................... @@OOO",
"OOO++@  .......................XX........... @@OOO",
"OOO@@ ......................................@++OOO",
"OOO@@ ......................................@++OOO",
"OOO@@ ......................................@ooOOO",
"OOO@@ ......................................@ooOOO",
"OOO++@......................................@ooOOO",
"OOOoo@  ....................XX..............@++OOO",
"OOOoo@  ....................XX..............@++OOO",
"OOOoo@  .................XX.XXX..X.......... @@OOO",
"OOOOO+@@.................XXXXXXXXX.......... @@OOO",
"OOOOO+@@.................XXXXXXXXX.......... @@OOO",
"OOOOO+@@.................  X  XXX ..........@++OOO",
"OOO++@  ...................      ...........@++OOO",
"OOO++@  ...................      ...........@++OOO",
"OOO@@ ...................................... @@OOO",
"OOO@@......XX................................@@OOO",
"OOO@@......XX................................@@OOO",
"OOO@@ ..X..XX..............X     ........... @@OOO",
"OOO@@ ..X..XX..............X     ........... @@OOO",
"OOO@@    ..  ...    XX...             ...    @@OOO",
"OOO++@                      @@@@@           @++OOO",
"OOO++@                      @@@@@           @++OOO",
"OOOoo+@@@       @@@@     @@@++O++@@@@@   @@@+ooOOO",
"OOOoooOO+@@@@@@@+OO+@@@@@++OooooooOO++@@@+oooooOOO",
"OOOoooOO+@@@@@@@+OO+@@@@@++OooooooOO++@@@+oooooOOO",
"OOOOOooooooooooooooooooooooooooooooooooooooooOOOOO",
"OOOOOOOOoooooooooooooooooooOOOOOOOOOooooooOOOOOOOO",
"OOOOOOOOoooooooooooooooooooOOOOOOOOOooooooOOOOOOOO"
};
