/* XPM */
static char *result[] = {
/* columns rows colors chars-per-pixel */
"40 40 8 1 ",
"  c #04193F",
". c #03396B",
"X c #C3242F",
"o c #E7333B",
"O c #0696DB",
"+ c #0FEFFB",
"@ c #FCFEFE",
"# c None",
/* pixels */
"########################################",
"########################################",
"########################################",
"########################################",
"########################################",
"########################################",
"###############      ###################",
"###############      ###################",
"############   ++++OO   ################",
"########### ++++++++O... ###############",
"########## +++++++++  ... ##############",
"######### ++++++++++  .... #############",
"######### ++++++++++  .... #############",
"######### ++++   +++OO...  #############",
"#######  +++   @@  +OOOO  @  ###########",
"#######  +++   @@  +OOOO  @  ###########",
"#######  +++   @@  +OOOO  @  ###########",
"#######  +++   @@  +OOOO  @  ###########",
"#######  +++++   ++OOOOO.    ###########",
"#######  ++++++++++OOOOO...  ###########",
"######### +++++++OOOOO.... #############",
"######### +++++OOOOO  .... #############",
"######### +++++OOOOO  .... #############",
"#########  OOOOOOOOOOO...  ##       ####",
"#########  XXXOOOOOOO....    ....... ###",
"#######  O oooXXXOO.....X .......... ###",
"###### OOO. oooooXXXXXXXo........... ###",
"###### OOO. oooooXXXXXXXo........... ###",
"###### OOOO.  oooooooooo........... ####",
"##### OOOOO... ooooooooo........... ####",
"##### OOOOO.OO. oooooo  .     .... #####",
"##### OOOO.OOOO. ooo  .. #####    ######",
"##### OOOO.OOOO. ooo  .. #####    ######",
"######    .OOOOO.   .... ###############",
"########## OOOOOO....... ###############",
"######### OOOOOOOOO..... ###############",
"######### OOOOO    ...  ################",
"######### OOOOO    ...  ################",
"#######  OOOOO # .....  ################",
"#######  OOO  ## .... ##################"
};
