/* XPM */
static char *result[] = {
/* columns rows colors chars-per-pixel */
"40 40 8 1 ",
"  c #04193F",
". c #03396B",
"X c #C3242F",
"o c #E7333B",
"O c #0696DB",
"+ c #0FEFFB",
"@ c #FCFEFE",
"# c None",
/* pixels */
"########################################",
"########################################",
"########################################",
"########################################",
"########################################",
"########################################",
"########################################",
"########################################",
"################      ##################",
"##############  ++++OO   ###############",
"############  +++++++O... ##############",
"########### +++++++++   .. #############",
"########### +++++++++   .. #############",
"########## ++++++++++   ...  ###########",
"########## ++++    ++OOO..   ###########",
"######### ++++  @@@ +OOOO  @@ ##########",
"######### ++++  @@@ +OOOO  @@ ##########",
"######### ++++  @@@ +OOOO  @@ ##########",
"######### ++++      +OOOO     ##########",
"######### +++++    +OOOOO.    ##########",
"######### ++++++++++OOOOO.... ##########",
"########## ++++++++OOOOO...  ###########",
"########## ++++++++OOOOO...  ###########",
"########## +++++OOOOO   ...  ###########",
"########### OOOOOOOOOOOO.. #############",
"########### XXXOOOOOOO.... #############",
"########### oooXXXXO.....X #############",
"########### oooXXXXO.....X #############",
"########## .  oooooXXXXXXo #############",
"########## O..  oooooooooo #############",
"######### OOOO.. oooooooo .  ###########",
"######### OOOOO..   ooooo..  ###########",
"######### OOOOO..   ooooo..  ###########",
"######### OOOO.OO...  oo ..  ###########",
"########## ...OOOOOO..  .  #############",
"########### OOOOOOO...... ##############",
"########### OOOOO   ..... ##############",
"########### OOOOO   ..... ##############",
"########### OOOOO   .... ###############",
"########### OOOO ## .... ###############"
};
