/* XPM */
static char *result[] = {
/* columns rows colors chars-per-pixel */
"40 40 6 1 ",
"  c #04193F",
". c #780BF7",
"X c #D840FB",
"o c #F489F6",
"O c #FCFEFE",
"+ c None",
/* pixels */
"++++++++++++++++++++++++++++++++++++++++",
"++++++++++++++++++++++++++++++++++++++++",
"++++++++++++++++++++++++++++++++++++++++",
"++++++++++++++++++++++++++++++++++++++++",
"++++++++++++++++++++++++++++++++++++++++",
"++++++++++++++++++++++++++++++++++++++++",
"+++++++++       +    +++++++++++++++++++",
"+++++++++       +    +++++++++++++++++++",
"+++++++  ooooooo ....   ++++++++++++++++",
"+++++++  ooooooXXXXX.... +++++++++++++++",
"+++++++++  XXXoooooXXX... ++++++++++++++",
"+++++++++ XoooooooooXXXX. ++++++++++++++",
"+++++++++ XoooooooooXXXX. ++++++++++++++",
"+++++++++ ooooooOOOOOOOO.. +++++++++++++",
"+++++++  XoooooOOOOOOOOOO. +++++++++++++",
"+++++++  oooooOO    OOOO  .  +++++++++++",
"+++++++  oooooO  OOO O   O   +++++++++++",
"+++++++  oooooO  OOO O   O   +++++++++++",
"+++++++  oooooO  OOO O   O   +++++++++++",
"+++++++  oooooO  OOO O   O   +++++++++++",
"+++++++  XoooooO    OOOO  .  +++++++++++",
"+++++++++ oooooOOOOOOOOOOO +++++++++++++",
"+++++++++ oooooOOOOOOOOOOO +++++++++++++",
"+++++++++ XoooooXOOOOOOOO. ++       ++++",
"+++++++++ oooooooXXXX....    ....... +++",
"+++++++  ooooooooooOOO.............. +++",
"++++++ ooooooo.ooOOOOO.............. +++",
"++++++ ooooooo.ooOOOOO.............. +++",
"++++++ ooooo..XooOOOOOOO........... ++++",
"+++++ ooooo.XXXoOOOOOOOO........... ++++",
"+++++ ooooo.XXooOOOOOOOO.     .... +++++",
"+++++ oooo.XXXooOOOOOOOO +++++    ++++++",
"+++++ oooo.XXXooOOOOOOOO +++++    ++++++",
"++++++    .XooooOOOOOOOO +++++++++++++++",
"++++++++++ ooooooOOOOO.. +++++++++++++++",
"+++++++++ oooooooXXXX... +++++++++++++++",
"+++++++++ ooooo    ...  ++++++++++++++++",
"+++++++++ ooooo    ...  ++++++++++++++++",
"+++++++  ooooo + .....  ++++++++++++++++",
"+++++++  ooo  ++ .... ++++++++++++++++++"
};
