/* XPM */
static char *result[] = {
/* columns rows colors chars-per-pixel */
"40 40 6 1 ",
"  c #04193F",
". c #780BF7",
"X c #D840FB",
"o c #F489F6",
"O c #FCFEFE",
"+ c None",
/* pixels */
"++++++++++++++++++++++++++++++++++++++++",
"++++++++++++++++++++++++++++++++++++++++",
"++++++++++++++++++++++++++++++++++++++++",
"++++++++++++++++++++++++++++++++++++++++",
"++++++++++++++++++++++++++++++++++++++++",
"+++++++++++++  +++++++  ++++++++++++++++",
"+++++++++++  oo ++++  .. +++++++++++++++",
"++++++++++ ooooo    .... +++++++++++++++",
"++++++++++ ooooo    .... +++++++++++++++",
"++++++++++ ooooooo  ..... ++++++++++++++",
"+++++++++++  oooXXXXXX... ++++++++++++++",
"+++++++++++  XooooooXXXX.. +++++++++++++",
"+++++++++++  XooooooXXXX.. +++++++++++++",
"++++++++++ XXoooooooooXXX. +++++++++++++",
"++++++++++ oooooooOOOOOOO..  +++++++++++",
"+++++++++ XoooooOOOOOOOOOO.  +++++++++++",
"+++++++++ oooooOOO    OOO  .. ++++++++++",
"+++++++++ oooooOOO    OOO  .. ++++++++++",
"+++++++++ oooooO  OOOOOO  O   ++++++++++",
"+++++++++ oooooO  OOOOOO  O   ++++++++++",
"+++++++++ oooooO      OO      ++++++++++",
"+++++++++ oooooO      OO      ++++++++++",
"++++++++++ oooooOOOOOOOOOOO  +++++++++++",
"++++++++++ oooooOOOOOOOOOOO  +++++++++++",
"++++++++++ XXoooooOOOOOOOO.  +++++++++++",
"+++++++++++  oooooXXXX.... +++++++++++++",
"+++++++++++  oooooooOOOO. ++++++++++++++",
"++++++++++ ooooo..OOOOOO.. +++++++++++++",
"++++++++++ ooooo..OOOOOO.. +++++++++++++",
"++++++++++ ooooo..OOOOOOO. +++++++++++++",
"+++++++++ ooooo.XXOOOOOOO..  +++++++++++",
"+++++++++ ooooo.XXOOOOOOO..  +++++++++++",
"+++++++++ ooooo.XXOOOOOOO..  +++++++++++",
"+++++++++ oooo.XooOOOOOOO..  +++++++++++",
"++++++++++ ...XXooOOOOOO.  +++++++++++++",
"+++++++++++  XXoooXXXX... ++++++++++++++",
"+++++++++++  ooooo  ..... ++++++++++++++",
"+++++++++++  ooooo  ..... ++++++++++++++",
"+++++++++++  ooo    .... +++++++++++++++",
"+++++++++++  ooo    .... +++++++++++++++"
};
