/* XPM */
static char *_851423ae0984d19ac3293daa476026ekadH6BrC9s96RtXZ[] = {
/* columns rows colors chars-per-pixel */
"48 50 206 2 ",
"   c None",
".  c #242109",
"X  c #23261F",
"o  c #282012",
"O  c #3A2E1C",
"+  c #362B18",
"@  c #39321D",
"#  c #3D3421",
"$  c #393429",
"%  c #282922",
"&  c #402F00",
"*  c #4B361C",
"=  c #523A07",
"-  c #473920",
";  c #5F431D",
":  c #6A6100",
">  c #7A7313",
",  c #594829",
"<  c #664C27",
"1  c #69542B",
"2  c #735426",
"3  c #775C31",
"4  c #6E6421",
"5  c #706343",
"6  c #8C5200",
"7  c #8E5800",
"8  c #935C00",
"9  c #975A03",
"0  c #9B6101",
"q  c #98610B",
"w  c #A46901",
"e  c #AA6D00",
"r  c #AE7101",
"t  c #B47502",
"y  c #B67A01",
"u  c #BC7C01",
"i  c #A87416",
"p  c #B67B14",
"a  c #805F2F",
"s  c #876737",
"d  c #C07E00",
"f  c #BF900E",
"g  c #AF870F",
"h  c #B88823",
"j  c #B79221",
"k  c #BE9535",
"l  c #C48304",
"z  c #C88706",
"x  c #CC8B06",
"c  c #CE8D0A",
"v  c #C08F05",
"b  c #D18E0A",
"n  c #C4960D",
"m  c #CF960E",
"M  c #D29307",
"N  c #D3930A",
"B  c #D7990E",
"V  c #DA9B0B",
"C  c #C78813",
"Z  c #CB9917",
"A  c #D39813",
"S  c #DEA00E",
"D  c #C6A31C",
"F  c #C9A41C",
"G  c #CDAB1C",
"H  c #DCA414",
"J  c #D1AB1D",
"K  c #DDAB1D",
"L  c #D8A117",
"P  c #D1B31E",
"I  c #E2A30E",
"U  c #E0A612",
"Y  c #E4AA13",
"T  c #EAAF11",
"R  c #E7B217",
"E  c #E9B214",
"W  c #E4B41C",
"Q  c #EBB61A",
"!  c #ECBC1C",
"~  c #C79427",
"^  c #D39825",
"/  c #D09830",
"(  c #C99E39",
")  c #C7A523",
"_  c #CEA729",
"`  c #D9AF22",
"'  c #CFB225",
"]  c #CFB628",
"[  c #D1B322",
"{  c #DFB12D",
"}  c #D4B929",
"|  c #CDA637",
" . c #DAAB3A",
".. c #D8A735",
"X. c #DDB133",
"o. c #EABD24",
"O. c #E2B42D",
"+. c #E6BB2D",
"@. c #E9BE2B",
"#. c #E5B723",
"$. c #E0B335",
"%. c #EFC01E",
"&. c #F0C01C",
"*. c #DCC425",
"=. c #D7C32B",
"-. c #DCC22C",
";. c #DAC82C",
":. c #EDC323",
">. c #EBC32B",
",. c #E2CD2B",
"<. c #EEC92A",
"1. c #E8C82A",
"2. c #F1C521",
"3. c #F3CD25",
"4. c #F3CE2A",
"5. c #F0C72C",
"6. c #E5D42E",
"7. c #ECDE2D",
"8. c #F3D32A",
"9. c #F8D329",
"0. c #F9DC2D",
"q. c #F4D026",
"w. c #EFCA30",
"e. c #EFCA36",
"r. c #F1CD39",
"t. c #E6D433",
"y. c #E6D936",
"u. c #F5DC31",
"i. c #FEF82D",
"p. c #EAE134",
"a. c #EDE53C",
"s. c #EFEB3A",
"d. c #FBE434",
"f. c #FEE936",
"g. c #F2EB3B",
"h. c #FEEB3B",
"j. c #F0E636",
"k. c #FDF43C",
"l. c #FEFD3F",
"z. c #F4F03D",
"x. c #9D9576",
"c. c #DBAA48",
"v. c #D0A250",
"b. c #DCB459",
"n. c #CAAA4C",
"m. c #E4BE4A",
"M. c #E2B843",
"N. c #E2BC53",
"B. c #E0BD5C",
"V. c #E1B257",
"C. c #DAB769",
"Z. c #D8BB75",
"A. c #D2C557",
"S. c #E9C446",
"D. c #E9C34C",
"F. c #E8CA46",
"G. c #E7C455",
"H. c #F1DA55",
"J. c #ECE146",
"K. c #FFEF41",
"L. c #FEE648",
"P. c #FEF344",
"I. c #FEFD44",
"U. c #FDFD4C",
"Y. c #FFF14A",
"T. c #FBFE53",
"R. c #F6FF5C",
"E. c #FCFF5B",
"W. c #F7FF53",
"Q. c #E9E257",
"!. c #E4C56C",
"~. c #E4C260",
"^. c #ECD969",
"/. c #F0D367",
"(. c #F3DA68",
"). c #E8CA76",
"_. c #F2D777",
"`. c #FCFF63",
"'. c #FEFF6B",
"]. c #F5FF61",
"[. c #FFFF75",
"{. c #FFFF7C",
"}. c #C0AE82",
"|. c #E3C284",
" X c #EAD28A",
".X c #E8CE93",
"XX c #E8D297",
"oX c #FFFF83",
"OX c #FFFE8B",
"+X c #F1E693",
"@X c #FEFF95",
"#X c #FEFE9C",
"$X c #FAE684",
"%X c #DCD1BA",
"&X c #D6CBAA",
"*X c #FFFFA9",
"=X c #FEFFA6",
"-X c #FEFFBA",
";X c #FEFEC8",
":X c #FFFFD8",
">X c #FFFFE5",
",X c #FFFFF3",
"<X c white",
"1X c #FFFEFF",
"2X c #FEFFFE",
"3X c #FEFEFB",
/* pixels */
"                                                                                                ",
"                                                                                                ",
"                                                                                                ",
"                                                                                                ",
"                                                                                                ",
"                                              n.A..X                                            ",
"                                            | P ,.-.                                            ",
"                                          /.' E.2X`.F.                                          ",
"                                          F.' #X2X-Xt.^.                                        ",
"                                        (.1.} >X2X2Xa.t.XX                                      ",
"                                      _.w.` -.2X2X2X`.j.t.                                      ",
"                                      F.<.Z t.2X2X2X[.I.p.                                      ",
"                                      w.>.D p.2X2X2XoXT.g.^.                                    ",
"                                    _.5.) ] `.2X2X2XOX`.U.p.J.                                  ",
"                                    F.>.) } OX2X2X2XOX`.W.s.p.Q.                                ",
"                                  /.w.[ ' =.>X2X2X2XoX'.].I.s.y.                                ",
"                                r.@.) [ =.s.2X2X2X*X[.[.`.W.I.z.6.;.*.P P J P [ } C.            ",
"                              H.n n F } ;.oX2X2X:X@X[.'.'.R.W.I.p.6.,.*.*.*.*.*.,.J.+X          ",
"                          S.Z g n F G 6.[.2X2X3X*XoX[.'.'.].R.W.z.z.p.6.6.6.p.s.z.h.(.          ",
"                $Xm.f v m J G P ,.E.;X2X2X2X:X@XoX[.'.`.`.R.W.W.U.U.U.I.l.l.l.k.f.5.|.          ",
"              ) D D G [ } 7.T.@X2X2X2X2X2X2X#XoX[.'.`.`.].T.. # l.U.U.I.I.l.f.d.7...            ",
"            F.[ *.6.[.=X,X2X2X2X2X2X2X2X,X-XoXo + E.`.E.E.T.o x.i.I.I.k.h.h.u.8.:.C.            ",
"          /.1.I.U.R.[.[.{.OX@X@X#X#X#XoX[.[.A., 3X5 T.U.U.P.+ &XY.j.d.0.0.9.o.U ^               ",
"           Xe.g.I.U.`.`.`.[.[.{.{.{.[.[.'.E.> 1 3X%XU.P.P.k.O 1 g u.0.8.8.:.U A C.              ",
"            B.W W 5.P.U.T.`.`.'.'.'.`.E.E.T.: , %X}.P.P.h.f.@ ; = 4.4.2.2.o.N /                 ",
"              G.O.@.B L o.u.f.h.P.Y.P.P.h.k.J.* < 2 0.0.0.3.- < 1 ! :.Q Y B v.                  ",
"                ~.$.@.A N R o.4.d.f.f.f.f.f.L.* 2 a 9.9.q.&.$ < 1 ! Q Y S N                     ",
"                  ).O.@.` N B H :.3.9.0.0.0.8.* a s 3.&.&.! + , 1 R Y U B b                     ",
"                    XXM.{ @.` c N V Y %.&.&.&.X 3 s Q E E T Y $ U U V B b /                     ",
"                        M.O.@.` c N V R ! ! &.@ X % E Y T Y S S S S B V c c.                    ",
"                        .X{ +.+.c c B Y T E E T 4 j Y T Y I I S V V V M c b.                    ",
"                          $.X.+.#.N c B I I Y Y Y I I V S V V V N N N N b V.                    ",
"                          M.O.+.@.A b B V H I I I I V V V V N N N N b b b c.                    ",
"                          N.O.+.<.H N N V V S V V V V V V N M M N x x x b  .                    ",
"                          G.@.>.>.H N N N M N N M M M M b x z x z z z z C ^                     ",
"                          G.+.>.:.L N b x b M M M M x l l d d d l d z l z ^                     ",
"                          G.@.>.o.A N x x x x x x x d u t e e t u u u l l C                     ",
"                          D.@.<.#.m c l l l l l t w 7 6 9 9 6 6 7 9 e t u C                     ",
"                          D.>.<.Y c l l l u y w 8 7 h |  ./ j i 6 7 9 t t p                     ",
"                          D.>.<.L z l u y t 9 7 9 (       !.N. .h q 6 9 e p                     ",
"                          D.<.<.c u t 0 0 0 B.                       Xb.Z.                      ",
"                          D.<.>.l t e 0 8 k                                                     ",
"                          G.>.>.y r w i ~.                                                      ",
"                            S.O.~ | !.                                                          ",
"                              ). X                                                              ",
"                                                                                                ",
"                                                                                                ",
"                                                                                                ",
"                                                                                                ",
"                                                                                                "
};
