/* XPM */
static char *result[] = {
/* columns rows colors chars-per-pixel */
"26 40 4 1 ",
"  c gray9",
". c #BFA787",
"X c #E8D4B2",
"o c None",
/* pixels */
"oooooooo          oooooooo",
"oooooooo          oooooooo",
"oooo    XXXXXXXXXX    oooo",
"oooo    XXXXXXXXXX    oooo",
"oo  XXXXXXXXXXXXXXXXXX  oo",
"oo  XXXXXXXXXXXXXXXXXX  oo",
"oo  XXXXXXXXXXXXXXXXXX  oo",
"oo  XXXXXXXXXXXXXXXXXX  oo",
"  XXXXXXXXXXXXXXXXXXXXXX  ",
"  XXXXXXXXXXXXXXXXXXXXXX  ",
"  XXXXXXXXXXXXXXXXXXXXXX  ",
"  XXXXXXXXXXXXXXXXXXXXXX  ",
"  XXXXXXXXXXXXXXXXXXXXXX  ",
"  XXXXXXXXXXXXXXXXXXXXXX  ",
"  ..XXXX  XXXXXXXXXXXX..  ",
"  ..XXXX  XXXXXXXXXXXX..  ",
"oo  XXXX  XXXXXXXXXXXX  oo",
"oo  XXXX  XXXXXXXXXXXX  oo",
"oo  ..XXXXXXXXXXXXXX..  oo",
"oo  ..XXXXXXXXXXXXXX..  oo",
"oooo  ..XXXXXXXXXX..  oooo",
"oooo  ..XXXXXXXXXX..  oooo",
"oooooo    ..XXXX..  oooooo",
"oooooo    ..XXXX..  oooooo",
"oooo    ..XXXXXX    oooooo",
"oooo    ..XXXXXX    oooooo",
"oooo    XXXXXX  XX..  oooo",
"oooo    XXXXXX  XX..  oooo",
"oooooo  XXXXXX  XXXX  oooo",
"oooooo  XXXXXX  XXXX  oooo",
"oooo  XXXXXX....    oooooo",
"oooo  XXXXXX....    oooooo",
"oo  ..XX....  ......  oooo",
"oo  ..XX....  ......  oooo",
"oo  ......      ....  oooo",
"oo  ......      ....  oooo",
"oooo      oooooo    oooooo",
"oooo      oooooo    oooooo",
"oooooooooooooooooooooooooo",
"oooooooooooooooooooooooooo"
};
