/* XPM */
static char *result[] = {
/* columns rows colors chars-per-pixel */
"26 40 4 1 ",
"  c gray9",
". c #BFA787",
"X c #E8D4B2",
"o c None",
/* pixels */
"oooooooo          oooooooo",
"oooooooo          oooooooo",
"oooo    XXXXXXXXXX    oooo",
"oooo    XXXXXXXXXX    oooo",
"oo  XXXXXXXXXXXXXXXXXX  oo",
"oo  XXXXXXXXXXXXXXXXXX  oo",
"oo  XXXXXXXXXXXXXXXXXX  oo",
"oo  XXXXXXXXXXXXXXXXXX  oo",
"  XXXXXXXXXXXXXXXXXXXXXX  ",
"  XXXXXXXXXXXXXXXXXXXXXX  ",
"  XXXXXXXXXXXXXXXXXXXXXX  ",
"  XXXXXXXXXXXXXXXXXXXXXX  ",
"  XXXXXXXXXXXXXXXXXXXXXX  ",
"  XXXXXXXXXXXXXXXXXXXXXX  ",
"  ..XXXXXXXXXXXX  XXXX..  ",
"  ..XXXXXXXXXXXX  XXXX..  ",
"oo  XXXXXXXXXXXX  XXXX  oo",
"oo  XXXXXXXXXXXX  XXXX  oo",
"oo  ..XXXXXXXXXXXXXX..  oo",
"oo  ..XXXXXXXXXXXXXX..  oo",
"oooo  ..XXXXXXXXXX..  oooo",
"oooo  ..XXXXXXXXXX..  oooo",
"oooooo    ..XX..    oooooo",
"oooooo    ..XX..    oooooo",
"oooooo  ..XXXX  ..XX  oooo",
"oooooo  ..XXXX  ..XX  oooo",
"oooo    ..XXXX  XXXX  oooo",
"oooo    ..XXXX  XXXX  oooo",
"oooo    ....XX..    oooooo",
"oooo    ....XX..    oooooo",
"oooooo  ........    oooooo",
"oooooo  ........    oooooo",
"oooo  ......    ..XX  oooo",
"oooo  ......    ..XX  oooo",
"oooo  ....      ....  oooo",
"oooo  ....      ....  oooo",
"oooooo    oooooo    oooooo",
"oooooo    oooooo    oooooo",
"oooooooooooooooooooooooooo",
"oooooooooooooooooooooooooo"
};
