/* XPM */
static char *result[] = {
/* columns rows colors chars-per-pixel */
"26 40 4 1 ",
"  c gray9",
". c #BFA787",
"X c #E8D4B2",
"o c None",
/* pixels */
"oooooooo          oooooooo",
"oooooooo          oooooooo",
"oooo    XXXXXXXXXX    oooo",
"oooo    XXXXXXXXXX    oooo",
"oo  XXXXXXXXXXXXXXXXXX  oo",
"oo  XXXXXXXXXXXXXXXXXX  oo",
"oo  XXXXXXXXXXXXXXXXXX  oo",
"oo  XXXXXXXXXXXXXXXXXX  oo",
"  XXXXXXXXXXXXXXXXXXXXXX  ",
"  XXXXXXXXXXXXXXXXXXXXXX  ",
"  XXXXXXXXXXXXXXXXXXXXXX  ",
"  XXXXXXXXXXXXXXXXXXXXXX  ",
"  XXXXXXXXXXXXXXXXXXXXXX  ",
"  XXXXXXXXXXXXXXXXXXXXXX  ",
"  ..XXXXXXXXXXXX  XXXX..  ",
"  ..XXXXXXXXXXXX  XXXX..  ",
"oo  XXXXXXXXXXXX  XXXX  oo",
"oo  XXXXXXXXXXXX  XXXX  oo",
"oo  ..XXXXXXXXXXXXXX..  oo",
"oo  ..XXXXXXXXXXXXXX..  oo",
"oooo  ..XXXXXXXXXX..  oooo",
"oooo  ..XXXXXXXXXX..  oooo",
"oooooo  ..XXXX..    oooooo",
"oooooo  ..XXXX..    oooooo",
"oooooo    XXXXXX..    oooo",
"oooooo    XXXXXX..    oooo",
"oooo  ..XX  XXXXXX    oooo",
"oooo  ..XX  XXXXXX    oooo",
"oooo  XXXX  XXXXXX  oooooo",
"oooo  XXXX  XXXXXX  oooooo",
"oooooo    ....XXXXXX  oooo",
"oooooo    ....XXXXXX  oooo",
"oooo  ......  ....XX..  oo",
"oooo  ......  ....XX..  oo",
"oooo  ....      ......  oo",
"oooo  ....      ......  oo",
"oooooo    oooooo      oooo",
"oooooo    oooooo      oooo",
"oooooooooooooooooooooooooo",
"oooooooooooooooooooooooooo"
};
