/* XPM */
static char *result[] = {
/* columns rows colors chars-per-pixel */
"27 40 4 1 ",
"  c gray9",
". c #BFA787",
"X c #E8D4B2",
"o c None",
/* pixels */
"oooooooo           oooooooo",
"oooooooo           oooooooo",
"oooo    XXXXXXXXXXX    oooo",
"oooo    XXXXXXXXXXX    oooo",
"oo  XXXXXXXXXXXXXXXXXXX  oo",
"oo  XXXXXXXXXXXXXXXXXXX  oo",
"oo  XXXXXXXXXXXXXXXXXXX  oo",
"oo  XXXXXXXXXXXXXXXXXXX  oo",
"  ..XXXXXXXXXXXXXXXXXXX..  ",
"  ..XXXXXXXXXXXXXXXXXXX..  ",
"  XXXXXXXXXXXXXXXXXXXXXXX  ",
"  XXXXXXXXXXXXXXXXXXXXXXX  ",
"  XXXXXXXXXXXXXXXXXXXXXXX  ",
"  ..XXXXXXXXXXXXXXXXXXX..  ",
"  ..XXXXXXXXXXXXXXXXXXX..  ",
"oo  XXXXXXXXXXXXXXXXXXX  oo",
"oo  XXXXXXXXXXXXXXXXXXX  oo",
"oo  ..XXXXXXXXXXXXXXX..  oo",
"oo  ..XXXXXXXXXXXXXXX..  oo",
"oooo  ..XXXXXXXXXXX..  oooo",
"oooo  ..XXXXXXXXXXX..  oooo",
"oo  ..XXXXXXXXXXXXXXXXX  oo",
"oo  ..XXXXXXXXXXXXXXXXX  oo",
"oo  ..  XXXXXXXXX  XXXX  oo",
"oo  ..  XXXXXXXXX  XXXX  oo",
"oooo    XXXXXXXXX  ..XX  oo",
"oooo    XXXXXXXXX  ..XX  oo",
"oooooo  XXXXXXXXX  ....  oo",
"oooooo  XXXXXXXXX  ....  oo",
"oooooo  XXXX.......    oooo",
"oooooo  XX..   ....  oooooo",
"oooooo  XX..   ....  oooooo",
"oooooo  ....  o    oooooooo",
"oooooo  ....  o    oooooooo",
"oooooooo    ooooooooooooooo",
"oooooooo    ooooooooooooooo",
"ooooooooooooooooooooooooooo",
"ooooooooooooooooooooooooooo",
"ooooooooooooooooooooooooooo",
"ooooooooooooooooooooooooooo"
};
