/* XPM */
static char *result[] = {
/* columns rows colors chars-per-pixel */
"50 50 3 1 ",
"  c #1E7CB8",
". c #2996DB",
"X c #5AAEE4",
/* pixels */
"                                                  ",
"                                                  ",
"                                  ..XXX..         ",
"         ..XXXXX.                        .        ",
"         ..XXXXX.                        .        ",
"     X..         XX.        ..X             X..   ",
"   ..               ..     .                   .  ",
"   ..               ..     .                   .  ",
"                                                  ",
"                                                  ",
"                                                  ",
"  .                   .                           ",
"  .                   .    .      ..   ..       ..",
"  .                   .    .      ..   ..       ..",
"                                                  ",
"                                                  ",
"                                                  ",
"   ..               ..                            ",
"   ..               ..                            ",
"     .XX         XX.       .                   .  ",
"        .XXXXXXX.           ..X             X..   ",
"        .XXXXXXX.           ..X             X..   ",
"                                  ..XXX..         ",
"                                                  ",
"                                                  ",
"      ..           .           ..         ..      ",
"      ..           .           ..         ..      ",
"     .              ..     .                   .  ",
"                                                  ",
"                                                  ",
"                                                  ",
"                                 .XXXX.XX.        ",
"                                 .XXXX.XX.        ",
"                              .             .     ",
"         ..XXX..            ..               ..   ",
"         ..XXX..            ..               ..   ",
"      ..                   .                   .  ",
"                 ..        .                   .  ",
"                 ..        .                   .  ",
"     .                      ..               ..   ",
"     .                      ..               ..   ",
"        ...   ...             X           XX.     ",
"                                 .  XXX...        ",
"                                 .  XXX...        ",
"                                                  ",
"                                                  ",
"                                                  ",
"     .              ..     .                   .  ",
"      ..           .           ..         ..      ",
"      ..           .           ..         ..      "
};
